HIERARCHY
ROOT Hips
{
	OFFSET 0.00000 0.00000 0.00000
	CHANNELS 6 Xposition Yposition Zposition Zrotation Yrotation Xrotation 
	JOINT LHipJoint
	{
		OFFSET 0 0 0
		CHANNELS 3 Zrotation Yrotation Xrotation
		JOINT LeftHip
		{
			OFFSET 1.56857 -1.73443 1.15205
			CHANNELS 3 Zrotation Yrotation Xrotation
			JOINT LeftKnee
			{
				OFFSET 2.39362 -6.57643 0.00000
				CHANNELS 3 Zrotation Yrotation Xrotation
				JOINT LeftAnkle
				{
					OFFSET 2.50952 -6.89485 0.00000
					CHANNELS 3 Zrotation Yrotation Xrotation
					JOINT LeftToe
					{
						OFFSET 0.17171 -0.47178 1.88682
						CHANNELS 3 Zrotation Yrotation Xrotation
						End Site
						{
							OFFSET 0.00000 -0.00000 0.98146
						}
					}
				}
			}
		}
	}
	JOINT RHipJoint
	{
		OFFSET 0 0 0
		CHANNELS 3 Zrotation Yrotation Xrotation
		JOINT RightHip
		{
			OFFSET -1.28153 -1.73443 1.15205
			CHANNELS 3 Zrotation Yrotation Xrotation
			JOINT RightKnee
			{
				OFFSET -2.26861 -6.23296 0.00000
				CHANNELS 3 Zrotation Yrotation Xrotation
				JOINT RightAnkle
				{
					OFFSET -2.54143 -6.98254 0.00000
					CHANNELS 3 Zrotation Yrotation Xrotation
					JOINT RightToe
					{
						OFFSET -0.23309 -0.64041 1.93119
						CHANNELS 3 Zrotation Yrotation Xrotation
						End Site
						{
							OFFSET -0.00000 -0.00000 1.02013
						}
					}
				}
			}
		}
	}
	JOINT lowerback
	{
		OFFSET 0 0 0
		CHANNELS 3 Zrotation Yrotation Xrotation
		JOINT Chest
		{
			OFFSET -0.07096 2.10460 -0.27878
			CHANNELS 3 Zrotation Yrotation Xrotation
			JOINT Chest2
			{
				OFFSET -0.00826 2.13662 -0.08279
				CHANNELS 3 Zrotation Yrotation Xrotation
				JOINT lowerneck
				{
					OFFSET 0 0 0
					CHANNELS 3 Zrotation Yrotation Xrotation
					JOINT Neck
					{
						OFFSET 0.03239 1.77799 0.24435
						CHANNELS 3 Zrotation Yrotation Xrotation
						JOINT Head
						{
							OFFSET 0.01026 1.74194 -0.49664
							CHANNELS 3 Zrotation Yrotation Xrotation
							End Site
							{
								OFFSET 0.00170 1.83057 -0.19653
							}
						}
					}
				}
				JOINT LeftCollar
				{
					OFFSET 0 0 0
					CHANNELS 3 Zrotation Yrotation Xrotation
					JOINT LeftShoulder
					{
						OFFSET 3.19178 1.35907 -0.31412
CHANNELS 3 Zrotation Xrotation Yrotation
						JOINT LeftElbow
						{
OFFSET 0 -4.852470 -0.000000
CHANNELS 3 Zrotation Xrotation Yrotation
							JOINT LeftWrist
							{
OFFSET 0 -3.555840 0.000000
CHANNELS 3 Zrotation Xrotation Yrotation
								JOINT lhand
								{
									OFFSET 0 0 0
CHANNELS 3 Zrotation Xrotation Yrotation
									JOINT LFingers
									{
OFFSET 0 -0.693200 0.000000
CHANNELS 3 Zrotation Xrotation Yrotation
										End Site
										{
OFFSET 0 -0.558880 0.000000
										}
									}
								}
								JOINT LThumb
								{
OFFSET 0 0.000000 0.000000
CHANNELS 3 Zrotation Xrotation Yrotation
									End Site
									{
OFFSET 0 -0.567410 0.567410
									}
								}
							}
						}
					}
				}
				JOINT RightCollar
				{
					OFFSET 0 0 0
					CHANNELS 3 Zrotation Yrotation Xrotation
					JOINT RightShoulder
					{
						OFFSET -3.28999 1.24191 -0.26899
CHANNELS 3 Zrotation Xrotation Yrotation
						JOINT RightElbow
						{
OFFSET 0 -4.644620 0.000000
CHANNELS 3 Zrotation Xrotation Yrotation
							JOINT RightWrist
							{
OFFSET 0 -3.407030 0.000000
CHANNELS 3 Zrotation Xrotation Yrotation
								JOINT rhand
								{
									OFFSET 0 0 0
CHANNELS 3 Zrotation Xrotation Yrotation
									JOINT RFingers
									{
OFFSET 0 -0.619580 0.000000
CHANNELS 3 Zrotation Xrotation Yrotation
										End Site
										{
OFFSET 0 -0.499520 0.000000
										}
									}
								}
								JOINT RThumb
								{
OFFSET 0 0.000000 0.000000
CHANNELS 3 Zrotation Xrotation Yrotation
									End Site
									{
OFFSET 0 -0.507150 0.507150
									}
								}
							}
						}
					}
				}
			}
		}
	}
}
MOTION
Frames: 10
Frame Time: 0.008333333333333333
-29.763800 17.085100 1.302000 59.553900 87.384000 58.451900 0.000000 0.000000 0.000000 -15.019100 4.647300 10.784400 0.011500 0.691600 1.900600 0.421900 9.382200 -19.066800 0.317400 -3.621600 -10.014400 0.000000 0.000000 0.000000 10.781200 -5.894600 7.121200 -0.038000 -1.257600 3.457900 -0.357700 9.116100 -11.593900 -0.062800 -1.616300 4.446400 -4.828300 1.516500 5.796100 -0.092300 1.721900 0.547800 2.471600 0.920200 -2.824300 3.300200 2.011100 -23.443100 -0.934800 1.939100 21.274000 -0.568500 1.066800 10.772000 -0.000000 0.000000 0.000000 3.437600 -0.727300 -43.061500 15.358800 -24.643600 3.374100 19.446800 -1.882500 26.399800 0.000000 0.000000 0.000000 -7.125000 0.000000 0.000000 -6.284100 2.361100 -6.056800 -0.000000 0.000000 0.000000 -3.900900 5.449500 36.081800 -17.359100 -27.328700 -4.250900 -13.293400 8.041500 29.424500 0.000000 0.000000 0.000000 7.125000 0.000000 -0.000000 20.048800 58.935300 -7.005000
-29.765849 17.081201 1.300128 58.665969 87.258955 57.581973 0.000000 0.000000 0.000000 -15.185332 4.566612 10.870480 0.009861 0.641184 1.761899 0.403812 9.633909 -19.123968 0.320752 -3.639936 -10.065891 0.000000 0.000000 0.000000 10.658502 -5.842101 7.171049 -0.034595 -1.200629 3.301077 -0.356873 9.175957 -11.603310 -0.065111 -1.645986 4.528324 -4.876768 1.529643 5.795479 -0.131463 1.734245 0.517557 2.456817 0.927936 -2.856481 3.382270 2.061581 -23.367987 -0.944539 1.986498 21.262430 -0.578368 1.094510 10.756214 0.000000 0.000000 0.000000 3.297107 -0.573674 -42.877676 14.847287 -23.932851 3.163770 20.402712 -1.986186 27.243618 0.000000 0.000000 0.000000 -7.125000 0.000000 0.000000 -5.801349 1.326599 -5.695207 0.000000 0.000000 0.000000 -3.858094 5.802663 36.026832 -17.251390 -27.187990 -4.201583 -13.009854 7.908835 28.144971 0.000000 0.000000 0.000000 7.125000 0.000000 0.000000 19.453269 57.672637 -6.190770
-29.768054 17.079145 1.299489 56.673167 87.232972 55.558272 0.000000 0.000000 0.000000 -15.156389 4.642610 10.975607 0.008501 0.594607 1.633956 0.394194 9.721935 -19.108463 0.388233 -4.001097 -11.079791 0.000000 0.000000 0.000000 10.590073 -6.108265 7.082733 -0.035199 -1.210491 3.328167 -0.333550 9.416946 -11.404972 -0.056844 -1.537292 4.228518 -4.850109 1.552888 5.809056 -0.112916 1.768148 0.556598 2.458326 0.943319 -2.826160 3.357810 2.045731 -23.430755 -0.921006 1.965440 21.328129 -0.568648 1.086274 10.790942 0.000000 0.000000 0.000000 3.192252 -0.438320 -42.683221 14.367171 -23.256891 2.971691 20.338470 -0.830092 27.068545 0.000000 0.000000 0.000000 -7.125000 0.000000 0.000000 -5.826437 1.510825 -5.691533 0.000000 0.000000 0.000000 -3.836426 5.943222 35.932475 -17.013056 -26.874980 -4.093250 -13.347094 8.346694 27.583082 0.000000 0.000000 0.000000 7.125000 0.000000 0.000000 18.742118 57.213205 -5.745104
-29.769283 17.078551 1.298917 54.045121 87.380013 52.852388 0.000000 0.000000 0.000000 -14.844134 4.819171 11.120851 0.006418 0.518733 1.425404 0.388449 9.629057 -18.948746 0.365264 -3.882184 -10.745404 0.000000 0.000000 0.000000 10.824256 -6.148166 7.123554 -0.036549 -1.233939 3.392719 -0.336417 9.534222 -11.481646 -0.053176 -1.488498 4.094053 -4.673928 1.499943 5.910044 -0.024712 1.706194 0.577968 2.454185 0.910912 -2.853157 3.288163 2.109596 -23.409766 -0.887883 2.071733 21.324599 -0.528341 1.133138 10.787004 0.000000 0.000000 0.000000 3.030657 -0.043798 -42.578696 13.803038 -22.452210 2.752576 22.597667 0.784867 26.231960 0.000000 0.000000 0.000000 -7.125000 0.000000 0.000000 -4.369981 1.961087 -4.231187 0.000000 0.000000 0.000000 -3.921325 6.063496 36.133549 -16.897526 -26.722433 -4.041124 -13.369762 8.868626 28.917177 0.000000 0.000000 0.000000 7.125000 0.000000 0.000000 19.614470 58.475960 -6.631458
-29.770567 17.076878 1.299011 56.179025 87.163179 55.004826 0.000000 0.000000 0.000000 -15.097069 4.924075 11.075538 0.006011 0.500658 1.375598 0.384966 9.594009 -18.873479 0.360599 -3.855710 -10.671404 0.000000 0.000000 0.000000 10.556904 -6.032266 7.148631 -0.035624 -1.218254 3.349600 -0.332426 9.549930 -11.439349 -0.068379 -1.686611 4.640217 -4.842496 1.533041 5.936310 -0.136883 1.733948 0.539215 2.429004 0.928335 -2.911796 3.295988 2.077074 -23.204762 -0.864131 2.024459 21.193756 -0.530331 1.115466 10.699885 0.000000 0.000000 0.000000 2.994394 0.411500 -42.494678 13.179958 -21.550223 2.519081 25.198384 1.968900 25.864497 0.000000 0.000000 0.000000 -7.125000 0.000000 0.000000 -2.758389 1.826048 -2.672588 0.000000 0.000000 0.000000 -3.845301 6.212411 35.872679 -16.605170 -26.334345 -3.910559 -13.415613 9.383512 29.023248 0.000000 0.000000 0.000000 7.125000 0.000000 0.000000 19.635696 58.586513 -6.687975
-29.772203 17.077109 1.298099 57.753096 87.022159 56.593578 0.000000 0.000000 0.000000 -15.316644 4.911120 11.143030 0.005299 0.467633 1.284990 0.398747 9.417848 -18.846838 0.273628 -3.363144 -9.291641 0.000000 0.000000 0.000000 10.344202 -6.057708 7.119713 -0.035609 -1.218353 3.349833 -0.331982 9.590939 -11.448689 -0.072539 -1.736910 4.779075 -5.024048 1.538460 5.904818 -0.161589 1.731999 0.566906 2.506409 0.928308 -2.869964 3.255306 2.095048 -23.216562 -0.854477 2.060419 21.175827 -0.514391 1.129332 10.695640 0.000000 0.000000 0.000000 2.712092 0.542097 -41.596924 12.854155 -21.073110 2.400589 23.791961 2.928222 26.286232 0.000000 0.000000 0.000000 -7.125000 0.000000 0.000000 -3.660726 1.665553 -3.557171 0.000000 0.000000 0.000000 -3.946714 6.457860 35.755741 -16.562828 -26.277801 -3.891800 -13.501843 9.530596 28.557392 0.000000 0.000000 0.000000 7.125000 0.000000 0.000000 19.223858 58.167235 -6.345300
-29.777092 17.078431 1.295731 53.489896 87.077868 52.341100 0.000000 0.000000 0.000000 -15.175842 4.810982 11.270402 0.004033 0.409892 1.126253 0.405798 9.616773 -19.127461 0.273747 -3.363887 -9.293612 0.000000 0.000000 0.000000 10.610939 -5.821807 7.092746 -0.036863 -1.239239 3.407399 -0.338210 9.516184 -11.496116 -0.077893 -1.800422 4.954384 -4.825806 1.573993 5.942114 -0.113257 1.791258 0.575992 2.439292 0.955623 -2.881625 3.271546 2.079994 -23.185976 -0.926597 2.051765 21.102039 -0.544974 1.116707 10.663611 0.000000 0.000000 0.000000 2.600194 0.644896 -41.428301 12.578771 -20.666813 2.302545 21.659294 3.762275 26.232305 0.000000 0.000000 0.000000 -7.125000 0.000000 0.000000 -4.935102 2.135560 -4.764731 0.000000 0.000000 0.000000 -3.936864 6.579275 35.425194 -16.483626 -26.171926 -3.856807 -13.323320 9.634168 28.892367 0.000000 0.000000 0.000000 7.125000 0.000000 0.000000 19.639735 58.443275 -6.621180
-29.784826 17.080776 1.298382 50.361689 87.165043 49.308920 0.000000 0.000000 0.000000 -15.172669 4.219462 11.608285 0.001596 0.257471 0.707307 0.383027 10.193907 -19.480100 0.244108 -3.179691 -8.779523 0.000000 0.000000 0.000000 10.881475 -5.603617 6.982540 -0.037072 -1.243412 3.418859 -0.339514 9.323328 -11.443638 -0.071458 -1.724959 4.746150 -4.688518 1.563868 5.890836 -0.092872 1.789293 0.564748 2.384790 0.952526 -2.860856 3.536666 2.066418 -23.078430 -1.277176 2.035389 21.079006 -0.718350 1.086837 10.642141 0.000000 0.000000 0.000000 2.576549 0.956864 -40.965927 12.511019 -20.566614 2.278616 19.617929 4.731751 25.665754 0.000000 0.000000 0.000000 -7.125000 0.000000 0.000000 -6.107989 3.084412 -5.803937 0.000000 0.000000 0.000000 -3.911628 6.604220 35.153155 -16.315178 -25.946134 -3.782811 -13.522435 10.077050 28.940402 0.000000 0.000000 0.000000 7.125000 0.000000 0.000000 19.466515 58.532353 -6.601803
-29.786129 17.077070 1.297578 53.637973 86.895738 52.626725 0.000000 0.000000 0.000000 -15.412334 4.611727 11.364554 0.001683 0.262217 0.720386 0.369196 10.000913 -19.124434 0.311899 -3.588939 -9.923162 0.000000 0.000000 0.000000 10.563599 -5.364775 7.060341 -0.034982 -1.206648 3.317629 -0.347998 9.202326 -11.505552 -0.094206 -1.978746 5.446988 -5.027509 1.559238 5.871745 -0.153790 1.760603 0.549972 2.514384 0.942848 -2.871702 3.389553 2.098002 -23.076580 -1.202470 2.113198 21.119114 -0.654878 1.120245 10.655816 0.000000 0.000000 0.000000 2.461280 1.250844 -40.623701 12.313734 -20.273462 2.209775 18.770923 5.021488 25.423996 0.000000 0.000000 0.000000 -7.125000 0.000000 0.000000 -6.600922 3.468744 -6.228277 0.000000 0.000000 0.000000 -3.982419 6.724950 34.886756 -16.127005 -25.692564 -3.700869 -13.700954 10.268833 28.371304 0.000000 0.000000 0.000000 7.125000 0.000000 0.000000 18.892122 58.034932 -6.169954
-29.790047 17.077395 1.296700 50.533835 86.907239 49.537142 0.000000 0.000000 0.000000 -15.647763 3.791499 12.050721 0.000051 0.033292 0.091490 0.341097 10.866523 -19.754292 0.267831 -3.325486 -9.186598 0.000000 0.000000 0.000000 10.702740 -5.318681 6.971790 -0.036104 -1.226568 3.372436 -0.340701 9.288981 -11.446555 -0.088077 -1.913645 5.267147 -4.944099 1.541936 5.800671 -0.114102 1.750148 0.609993 2.512389 0.933505 -2.767465 3.474811 2.177968 -23.002671 -1.276005 2.215710 21.052691 -0.679832 1.164353 10.622557 0.000000 0.000000 0.000000 2.525027 1.588713 -40.387405 11.974193 -19.765217 2.094126 19.432439 5.868247 25.739192 0.000000 0.000000 0.000000 -7.125000 0.000000 0.000000 -6.234478 3.025077 -5.918660 0.000000 0.000000 0.000000 -4.010885 6.715322 34.548136 -16.040627 -25.575693 -3.663541 -13.575876 10.449351 28.339264 0.000000 0.000000 0.000000 7.125000 0.000000 0.000000 19.000040 57.977632 -6.180284
